/* XPM */
static char * hakuneko_desktop_xpm[] = {
"32 32 864 2",
"  	c None",
". 	c #D3A19B",
"+ 	c #CF9B95",
"@ 	c #D2A09A",
"# 	c #E2B5AE",
"$ 	c #E5BCB5",
"% 	c #E6BFB8",
"& 	c #D7ADA5",
"* 	c #793A31",
"= 	c #AE7C72",
"- 	c #ECCCC7",
"; 	c #E8C7C1",
"> 	c #E8C8C2",
", 	c #EBCBC6",
"' 	c #E1BFB9",
") 	c #945C53",
"! 	c #D0AAA2",
"~ 	c #EED0C9",
"{ 	c #F0D3CC",
"] 	c #F1D5CE",
"^ 	c #F2D9D3",
"/ 	c #F3DBD6",
"( 	c #F0D8D3",
"_ 	c #EED5D0",
": 	c #EDD3CF",
"< 	c #EAD0CC",
"[ 	c #E9CDC9",
"} 	c #EACECA",
"| 	c #C7B0A8",
"1 	c #7E736B",
"2 	c #91857D",
"3 	c #E1D2CE",
"4 	c #F4E4E2",
"5 	c #C99C99",
"6 	c #CA9B97",
"7 	c #D6A69E",
"8 	c #E3B8B1",
"9 	c #E6BDB6",
"0 	c #E5C0B8",
"a 	c #AA776E",
"b 	c #783930",
"c 	c #E0BCB5",
"d 	c #E8C7C2",
"e 	c #E9C9C4",
"f 	c #EBCCC6",
"g 	c #AD7C74",
"h 	c #B88B83",
"i 	c #F0D4CC",
"j 	c #F2D7D0",
"k 	c #F2DAD5",
"l 	c #F3DCD7",
"m 	c #F3DDD9",
"n 	c #F1D9D5",
"o 	c #EDD6D2",
"p 	c #EBD2CF",
"q 	c #EACFCB",
"r 	c #E7CCC8",
"s 	c #9C8B83",
"t 	c #796E66",
"u 	c #A79A93",
"v 	c #F2E3E0",
"w 	c #CD9A96",
"x 	c #BF9799",
"y 	c #CFA7A4",
"z 	c #E4B9B1",
"A 	c #E6BEB8",
"B 	c #D8B0A8",
"C 	c #874B42",
"D 	c #A16C64",
"E 	c #E9C8C2",
"F 	c #E7C7C2",
"G 	c #EAC9C4",
"H 	c #EECFCB",
"I 	c #CCA49D",
"J 	c #A16D63",
"K 	c #EACCC4",
"L 	c #F1D6CE",
"M 	c #F2D8D3",
"N 	c #F3DCD8",
"O 	c #F3DFDB",
"P 	c #F0DBD8",
"Q 	c #EDD5D2",
"R 	c #EAD1CE",
"S 	c #E8CECA",
"T 	c #E8CCC8",
"U 	c #D4BBB6",
"V 	c #7E736A",
"W 	c #7D7269",
"X 	c #C8BAB4",
"Y 	c #CF9B96",
"Z 	c #C89A98",
"` 	c #C2A4A5",
" .	c #CBAEAE",
"..	c #E1BCB6",
"+.	c #C3958D",
"@.	c #74332A",
"#.	c #CFA7A0",
"$.	c #E5C4BD",
"%.	c #E9C9C3",
"&.	c #ECCDC8",
"*.	c #E8C9C3",
"=.	c #8F554C",
"-.	c #E2C2BA",
";.	c #F2D8D0",
">.	c #F2D8D1",
",.	c #F3DDD8",
"'.	c #F3DEDA",
").	c #F3E1DE",
"!.	c #F4E3DF",
"~.	c #F3E2DF",
"{.	c #EFDAD7",
"].	c #EBD3D0",
"^.	c #E9D0CC",
"/.	c #E7CCC9",
"(.	c #E4C8C4",
"_.	c #A3928A",
":.	c #847970",
"<.	c #CF9C99",
"[.	c #D2A29C",
"}.	c #CDABA9",
"|.	c #C1A9AC",
"1.	c #BDA5A8",
"2.	c #986D6A",
"3.	c #895049",
"4.	c #DDB8B2",
"5.	c #E0C1BD",
"6.	c #E3C7C4",
"7.	c #EED0CD",
"8.	c #A36F66",
"9.	c #CDA89F",
"0.	c #F5DAD2",
"a.	c #F1D7D0",
"b.	c #F3E0DB",
"c.	c #F3E2DE",
"d.	c #F4E4E1",
"e.	c #F3E3E0",
"f.	c #EED8D4",
"g.	c #EAD1CD",
"h.	c #E8CBC8",
"i.	c #CBB3AE",
"j.	c #82776E",
"k.	c #80756C",
"l.	c #D1A09D",
"m.	c #CAA1A0",
"n.	c #D0AEAC",
"o.	c #C6A9A9",
"p.	c #B59B9E",
"q.	c #745158",
"r.	c #9B7B7C",
"s.	c #CFB1AE",
"t.	c #DFC0BC",
"u.	c #D8C2C2",
"v.	c #AF9FA5",
"w.	c #A07E7C",
"x.	c #F5DBD3",
"y.	c #F3D7CF",
"z.	c #EDD5D0",
"A.	c #F3D9D1",
"B.	c #F1D6CF",
"C.	c #F3D8D3",
"D.	c #F2D9D4",
"E.	c #F3E1DD",
"F.	c #F4E3E0",
"G.	c #F2E0DE",
"H.	c #EBD4D1",
"I.	c #E9CFCB",
"J.	c #E3C7C3",
"K.	c #9F8E87",
"L.	c #D2A5A1",
"M.	c #D2A9A5",
"N.	c #C3A7A8",
"O.	c #C0A5A7",
"P.	c #A7888C",
"Q.	c #6E454B",
"R.	c #A3878B",
"S.	c #B0999E",
"T.	c #B8A4A8",
"U.	c #BFA7A9",
"V.	c #9C868D",
"W.	c #8A8EA2",
"X.	c #ADA7B1",
"Y.	c #E6CFCB",
"Z.	c #F8DCD4",
"`.	c #D0C2C4",
" +	c #DAC8C9",
".+	c #F0D4CE",
"++	c #E6CBC4",
"@+	c #EAD1C8",
"#+	c #F4DAD4",
"$+	c #F3DED9",
"%+	c #F4E5E3",
"&+	c #EFDCDA",
"*+	c #E7CDCA",
"=+	c #E9CDCA",
"-+	c #CDB5AF",
";+	c #83776F",
">+	c #D3A9A5",
",+	c #DAB0AC",
"'+	c #CDAEAE",
")+	c #BFA3A6",
"!+	c #896467",
"~+	c #785055",
"{+	c #AA8E92",
"]+	c #A58C94",
"^+	c #A38F98",
"/+	c #857785",
"(+	c #7A7487",
"_+	c #8B8798",
":+	c #787C94",
"<+	c #8B8A9D",
"[+	c #DAC6C5",
"}+	c #DECCC9",
"|+	c #9495A6",
"1+	c #E1D0D0",
"2+	c #EBD2CC",
"3+	c #CFB6AD",
"4+	c #D1B7AF",
"5+	c #EFD3CE",
"6+	c #F3D9D3",
"7+	c #F4E1DD",
"8+	c #EBD5D3",
"9+	c #E8CDCA",
"0+	c #EACECB",
"a+	c #A08E86",
"b+	c #D3ABA8",
"c+	c #DDB6B2",
"d+	c #D3B3B2",
"e+	c #BC9FA1",
"f+	c #764E52",
"g+	c #88646A",
"h+	c #AC949B",
"i+	c #A6929B",
"j+	c #8B7683",
"k+	c #5C4D64",
"l+	c #5D5871",
"m+	c #625E78",
"n+	c #6B6A82",
"o+	c #707089",
"p+	c #75768D",
"q+	c #C8BABE",
"r+	c #9796A6",
"s+	c #8C8EA1",
"t+	c #E0D5D6",
"u+	c #F3E0DC",
"v+	c #DFC7BF",
"w+	c #C5ADA2",
"x+	c #E0C6BE",
"y+	c #F0D6D0",
"z+	c #F2DBD5",
"A+	c #F2DFDC",
"B+	c #EAD2CE",
"C+	c #DDC3BF",
"D+	c #D5AEAC",
"E+	c #DFBAB7",
"F+	c #D9BAB8",
"G+	c #AB8C91",
"H+	c #765157",
"I+	c #937880",
"J+	c #BEABB3",
"K+	c #E6D4D9",
"L+	c #9F7F82",
"M+	c #857486",
"N+	c #695E76",
"O+	c #504560",
"P+	c #544A66",
"Q+	c #5C5570",
"R+	c #63607A",
"S+	c #66667F",
"T+	c #938F9E",
"U+	c #72738B",
"V+	c #8A8A9D",
"W+	c #DDD3D4",
"X+	c #F8E8E5",
"Y+	c #EBD4D0",
"Z+	c #CFB5AD",
"`+	c #D0B7AF",
" @	c #E5CBC4",
".@	c #F4DBD6",
"+@	c #F3DAD5",
"@@	c #F3DED8",
"#@	c #E9D0CE",
"$@	c #E8CCC9",
"%@	c #D7B2AF",
"&@	c #E0BEBB",
"*@	c #DDBEBD",
"=@	c #9A7A7E",
"-@	c #7A575F",
";@	c #9C838D",
">@	c #D4C0C6",
",@	c #DAC2C3",
"'@	c #BE9C99",
")@	c #EFE3EA",
"!@	c #C1B3BE",
"~@	c #54455F",
"{@	c #433452",
"]@	c #483A57",
"^@	c #4E435F",
"/@	c #544B66",
"(@	c #666079",
"_@	c #65637D",
":@	c #838397",
"<@	c #D3CBCE",
"[@	c #FCEDE9",
"}@	c #F2DEDB",
"|@	c #DAC1BB",
"1@	c #B9A197",
"2@	c #D2B9B2",
"3@	c #F2DCD6",
"4@	c #EFD9D5",
"5@	c #D7B4B2",
"6@	c #E2C1BF",
"7@	c #DBBCBC",
"8@	c #8C6A6F",
"9@	c #7B5A63",
"0@	c #AE98A2",
"a@	c #E7D4D9",
"b@	c #BB9995",
"c@	c #E5D5DD",
"d@	c #ECDFE7",
"e@	c #8A778A",
"f@	c #392542",
"g@	c #2E1636",
"h@	c #372442",
"i@	c #41304D",
"j@	c #463855",
"k@	c #4C405D",
"l@	c #544965",
"m@	c #5B546F",
"n@	c #736F86",
"o@	c #C2BBC2",
"p@	c #F9ECE8",
"q@	c #E4CBC7",
"r@	c #B79E96",
"s@	c #BEA69E",
"t@	c #F2DAD6",
"u@	c #EDD7D3",
"v@	c #E9D0CD",
"w@	c #D9B6B5",
"x@	c #E4C4C2",
"y@	c #D2B4B4",
"z@	c #85636A",
"A@	c #82646F",
"B@	c #CCB9BF",
"C@	c #D6BDBE",
"D@	c #D3BEC0",
"E@	c #E7DBE3",
"F@	c #D3C4CE",
"G@	c #553F58",
"H@	c #2D1534",
"I@	c #2B1133",
"J@	c #311438",
"K@	c #37153C",
"L@	c #391940",
"M@	c #3E2346",
"N@	c #412F4D",
"O@	c #463754",
"P@	c #4D415D",
"Q@	c #554B67",
"R@	c #615A74",
"S@	c #AAA2AD",
"T@	c #ECE0DF",
"U@	c #F5E4E2",
"V@	c #ECD3CF",
"W@	c #BDA49C",
"X@	c #B09990",
"Y@	c #EBD3CD",
"Z@	c #F1DAD5",
"`@	c #EED6D3",
" #	c #D9B8B7",
".#	c #E6C7C6",
"+#	c #C5A7A8",
"@#	c #825F67",
"##	c #8B707C",
"$#	c #E2CED1",
"%#	c #CDB3B3",
"&#	c #E5D7DE",
"*#	c #E7DAE2",
"=#	c #C0B0BD",
"-#	c #5E4A62",
";#	c #57425F",
">#	c #562B65",
",#	c #653072",
"'#	c #632D6A",
")#	c #59255D",
"!#	c #512054",
"~#	c #481F4C",
"{#	c #412649",
"]#	c #41304E",
"^#	c #4C3F5B",
"/#	c #4D435F",
"(#	c #857B8C",
"_#	c #DBD0D1",
":#	c #F6E5E1",
"<#	c #EFD6D2",
"[#	c #CCB3AC",
"}#	c #A99187",
"|#	c #DDC4BD",
"1#	c #F1D8D5",
"2#	c #DABBB9",
"3#	c #E7C9C8",
"4#	c #BA9A9C",
"5#	c #7D5A62",
"6#	c #A58E96",
"7#	c #DCC6C7",
"8#	c #D7C3C5",
"9#	c #E4D6DE",
"0#	c #E6D9E1",
"a#	c #E9E3EB",
"b#	c #DDD9E4",
"c#	c #E6E1EF",
"d#	c #C6B4D3",
"e#	c #84659C",
"f#	c #673E7C",
"g#	c #62336F",
"h#	c #5A2961",
"i#	c #522257",
"j#	c #4C1E4F",
"k#	c #45214A",
"l#	c #412A4B",
"m#	c #433450",
"n#	c #473856",
"o#	c #483A58",
"p#	c #6B5D73",
"q#	c #D7CACC",
"r#	c #F5E4E0",
"s#	c #EDD2CE",
"t#	c #C9B0A8",
"u#	c #AD958C",
"v#	c #DDC2BC",
"w#	c #F1D7D2",
"x#	c #DCBDBB",
"y#	c #E8CBC9",
"z#	c #B08E90",
"A#	c #7B5760",
"B#	c #C7B4BA",
"C#	c #D3BCBC",
"D#	c #D9C5CB",
"E#	c #E2D3DB",
"F#	c #EADEE6",
"G#	c #FCFCFF",
"H#	c #F8F7FF",
"I#	c #E4DFEF",
"J#	c #83649A",
"K#	c #643778",
"L#	c #602F6C",
"M#	c #5C2B65",
"N#	c #54255A",
"O#	c #4F2052",
"P#	c #4C1F4F",
"Q#	c #41254A",
"R#	c #40304D",
"S#	c #453552",
"T#	c #443552",
"U#	c #6F6075",
"V#	c #E6D9D8",
"W#	c #DEC3BD",
"X#	c #BDA39C",
"Y#	c #D0B6AE",
"Z#	c #E6CCC5",
"`#	c #DDBFBE",
" $	c #E7CBCB",
".$	c #AD8A8D",
"+$	c #7E5E67",
"@$	c #D9CBD1",
"#$	c #E6D7D9",
"$$	c #ECE1E9",
"%$	c #DBCAD1",
"&$	c #E8DDE5",
"*$	c #FAFBFF",
"=$	c #F7F6FF",
"-$	c #FBFAFF",
";$	c #CED2E9",
">$	c #AFC7EB",
",$	c #A2B1D8",
"'$	c #6E4984",
")$	c #623671",
"!$	c #5C2C64",
"~$	c #552359",
"{$	c #532156",
"]$	c #44224B",
"^$	c #3C2948",
"/$	c #42314E",
"($	c #3C2C4A",
"_$	c #837585",
":$	c #EFE3E1",
"<$	c #E5CDCA",
"[$	c #C9AFA8",
"}$	c #E5C8C3",
"|$	c #D6BCB4",
"1$	c #DEC0BF",
"2$	c #E5C9C9",
"3$	c #AD8A8A",
"4$	c #826570",
"5$	c #D2C3C8",
"6$	c #F8F1F6",
"7$	c #FDF9FE",
"8$	c #FBF7FB",
"9$	c #EEE5ED",
"0$	c #DCD8E6",
"a$	c #F9F8FF",
"b$	c #FAFAFF",
"c$	c #FDFCFF",
"d$	c #DDE5F4",
"e$	c #9FAFD3",
"f$	c #A4B9DD",
"g$	c #AEC8EB",
"h$	c #A4B3DB",
"i$	c #918EBB",
"j$	c #63316E",
"k$	c #5F2A65",
"l$	c #5C2862",
"m$	c #32183A",
"n$	c #372342",
"o$	c #3C2A48",
"p$	c #3E2C49",
"q$	c #A2939E",
"r$	c #F1DDDA",
"s$	c #DFC2BD",
"t$	c #E6C9C4",
"u$	c #E9CDC8",
"v$	c #DEC2C1",
"w$	c #E1C6C5",
"x$	c #B4908E",
"y$	c #7F636F",
"z$	c #D3C6CC",
"A$	c #FFFAFF",
"B$	c #FBF6FB",
"C$	c #EEE9F0",
"D$	c #6A5875",
"E$	c #A7A2C1",
"F$	c #CCCDE3",
"G$	c #D1D2E5",
"H$	c #C4CBE0",
"I$	c #B0C3DE",
"J$	c #8F9CBC",
"K$	c #96A6C8",
"L$	c #9FB2D5",
"M$	c #9CAED3",
"N$	c #AEC9EE",
"O$	c #7A5894",
"P$	c #6E3B7C",
"Q$	c #6D3577",
"R$	c #35173D",
"S$	c #3B2441",
"T$	c #65536B",
"U$	c #3A2746",
"V$	c #3D2B48",
"W$	c #B9A5AC",
"X$	c #EDD0CB",
"Y$	c #ECD1CC",
"Z$	c #DFC3C4",
"`$	c #DEC3C3",
" %	c #BB9590",
".%	c #82636D",
"+%	c #DDD4DB",
"@%	c #FEF9FE",
"#%	c #F1EBF1",
"$%	c #685872",
"%%	c #8284A4",
"&%	c #9AA3C5",
"*%	c #93A0BD",
"=%	c #9BABC5",
"-%	c #BDD3E9",
";%	c #BAC4DA",
">%	c #B4BED5",
",%	c #A5B4CF",
"'%	c #9BADCE",
")%	c #B0CCED",
"!%	c #73508E",
"~%	c #7A5093",
"{%	c #7B428A",
"]%	c #381841",
"^%	c #654F65",
"/%	c #CABBC6",
"(%	c #4B3752",
"_%	c #4C3A54",
":%	c #D8C0BE",
"<%	c #E9CCC6",
"[%	c #F0D6D1",
"}%	c #E0C5C5",
"|%	c #DDC1C1",
"1%	c #B6908C",
"2%	c #BB9A98",
"3%	c #C6B6C0",
"4%	c #FFFBFF",
"5%	c #F6F0F6",
"6%	c #88798D",
"7%	c #8289A1",
"8%	c #A8BDD4",
"9%	c #A1B8CD",
"0%	c #B8C8DA",
"a%	c #E2EEFA",
"b%	c #E7EFFA",
"c%	c #E3EBF7",
"d%	c #D5E0F0",
"e%	c #BBD3EA",
"f%	c #9FAFCF",
"g%	c #7F6EA1",
"h%	c #7F5F9D",
"i%	c #814B94",
"j%	c #301438",
"k%	c #988596",
"l%	c #634F67",
"m%	c #341F3F",
"n%	c #352140",
"o%	c #84707E",
"p%	c #F3DBD7",
"q%	c #E1C7C7",
"r%	c #DCBFC0",
"s%	c #B38D89",
"t%	c #E1C0BA",
"u%	c #D0B3B1",
"v%	c #F9ECEF",
"w%	c #FBF7FC",
"x%	c #FCF7FC",
"y%	c #BFB4C0",
"z%	c #78798F",
"A%	c #B5CCDE",
"B%	c #B6CFE1",
"C%	c #D1DFED",
"D%	c #E9F1FC",
"E%	c #F5F8FE",
"F%	c #F1F5FE",
"G%	c #E7F1FC",
"H%	c #C9DCEC",
"I%	c #919EB8",
"J%	c #9397BC",
"K%	c #8D7AAD",
"L%	c #784D8C",
"M%	c #2E1335",
"N%	c #CCBAC3",
"O%	c #E6D6DC",
"P%	c #8B788A",
"Q%	c #341E3E",
"R%	c #321B3A",
"S%	c #3B2340",
"T%	c #C9B6B9",
"U%	c #E1C7C8",
"V%	c #DBBFBF",
"W%	c #E5C5C0",
"X%	c #EECEC9",
"Y%	c #F0D1CD",
"Z%	c #F5E2E2",
"`%	c #F9F3F9",
" &	c #FAF6FC",
".&	c #F4EFF5",
"+&	c #75687D",
"@&	c #BDD0E0",
"#&	c #CEE4F2",
"$&	c #DBE8F4",
"%&	c #E3EBF6",
"&&	c #EFF5FD",
"*&	c #EDF3FC",
"=&	c #DFE8F5",
"-&	c #C0D0E0",
";&	c #9EB6CB",
">&	c #9CAAC7",
",&	c #9C94BE",
"'&	c #5F4570",
")&	c #6C586F",
"!&	c #F5EDF1",
"~&	c #EDE2E8",
"{&	c #C1B1BC",
"]&	c #361F3E",
"^&	c #665164",
"/&	c #6C576A",
"(&	c #86717F",
"_&	c #F0E0DD",
":&	c #E1C8C9",
"<&	c #DBC0BF",
"[&	c #B48F8B",
"}&	c #E8C6C1",
"|&	c #F0D0CB",
"1&	c #F0D0CC",
"2&	c #F2D3CF",
"3&	c #DCCDCD",
"4&	c #DFDADD",
"5&	c #CBC1CE",
"6&	c #7B788E",
"7&	c #DCF3FE",
"8&	c #EEF4FD",
"9&	c #DCE9F4",
"0&	c #DEE9F5",
"a&	c #DCE8F4",
"b&	c #D3E2EF",
"c&	c #BBD2E2",
"d&	c #AFC6D8",
"e&	c #A4B6CE",
"f&	c #999AB9",
"g&	c #493454",
"h&	c #D8D0DA",
"i&	c #FFF9FF",
"j&	c #57425C",
"k&	c #8F7E8B",
"l&	c #F3E4E2",
"m&	c #B4A2A7",
"n&	c #E8D7D6",
"o&	c #E2C9CB",
"p&	c #DBC1C1",
"q&	c #B7938F",
"r&	c #E9C7C2",
"s&	c #F0CFCB",
"t&	c #EFCDC8",
"u&	c #BDA69F",
"v&	c #B6AAA6",
"w&	c #8D7E8A",
"x&	c #A8AFBF",
"y&	c #EFF9FF",
"z&	c #FEFFFF",
"A&	c #F4F8FD",
"B&	c #EFF5FB",
"C&	c #E9F2FA",
"D&	c #EEF5FD",
"E&	c #C4DAEB",
"F&	c #ACBFD3",
"G&	c #6A647E",
"H&	c #97889A",
"I&	c #FFFEFF",
"J&	c #A99CAC",
"K&	c #94828E",
"L&	c #FDEDEB",
"M&	c #F6E7E4",
"N&	c #E3CACC",
"O&	c #DCC2C3",
"P&	c #B99692",
"Q&	c #F0CEC9",
"R&	c #F0CFCA",
"S&	c #F0CECB",
"T&	c #F4D2CE",
"U&	c #DCBDB8",
"V&	c #B39C94",
"W&	c #887577",
"X&	c #9F9FAA",
"Y&	c #CDD0D9",
"Z&	c #F1F5F9",
"`&	c #FCFFFF",
" *	c #F5FEFF",
".*	c #D9ECF8",
"+*	c #AFBDCE",
"@*	c #7C778E",
"#*	c #8C7C8E",
"$*	c #F5EFF5",
"%*	c #FDF8FD",
"&*	c #E5DCE7",
"**	c #A28F9D",
"=*	c #FBECE9",
"-*	c #E3CBCC",
";*	c #DDC4C4",
">*	c #BC9995",
",*	c #E9C8C3",
"'*	c #F1CFCB",
")*	c #F2D1CD",
"!*	c #F4D3CF",
"~*	c #E2C5C0",
"{*	c #C2A7A5",
"]*	c #AA999C",
"^*	c #99929A",
"/*	c #8E8E9E",
"(*	c #9899AC",
"_*	c #908DA0",
":*	c #9B91A3",
"<*	c #C3B8C4",
"[*	c #F9F5FA",
"}*	c #FBF6FC",
"|*	c #BEAAB7",
"1*	c #F9EAE7",
"2*	c #E4CBCD",
"3*	c #DFC7C8",
"4*	c #BE9B98",
"5*	c #F2D2CF",
"6*	c #F3DBDC",
"7*	c #F2D6D5",
"8*	c #F1CFCC",
"9*	c #F1D0CC",
"0*	c #F1D0CD",
"a*	c #F1D1CE",
"b*	c #F2D3D0",
"c*	c #EFD2CF",
"d*	c #EACECD",
"e*	c #DAC2C1",
"f*	c #B3A1A0",
"g*	c #A59796",
"h*	c #C6BEBF",
"i*	c #EDE7EC",
"j*	c #FCF7FD",
"k*	c #FBF5F9",
"l*	c #EDDDDE",
"m*	c #F5E6E4",
"n*	c #E5CDCF",
"o*	c #C0A09C",
"p*	c #F1D2CF",
"q*	c #F3DADB",
"r*	c #F7E8ED",
"s*	c #F6E6EA",
"t*	c #F2D3D1",
"u*	c #F1D1CD",
"v*	c #F1D2D0",
"w*	c #F2D4D2",
"x*	c #F2D7D4",
"y*	c #F4D9D7",
"z*	c #F6DDDC",
"A*	c #F4DFDD",
"B*	c #E3D2CE",
"C*	c #C9BBB6",
"D*	c #C7BDB9",
"E*	c #DED6DA",
"F*	c #F0E8EE",
"G*	c #F8F2F8",
"H*	c #FBF5FA",
"I*	c #F9F4F7",
"J*	c #F6E8E8",
"K*	c #F5E7E5",
"L*	c #F5E5E4",
"M*	c #E6CECF",
"N*	c #E5CED0",
"O*	c #C3A4A1",
"P*	c #E7C7C3",
"Q*	c #F4DBDC",
"R*	c #F6E5E8",
"S*	c #F6E4E8",
"T*	c #F2D4D0",
"U*	c #F2D5D2",
"V*	c #F3D9D7",
"W*	c #F3DBDA",
"X*	c #F3DEDC",
"Y*	c #F4E2E1",
"Z*	c #F6E6E5",
"`*	c #F7E7E6",
" =	c #F4E6E4",
".=	c #F0E3E1",
"+=	c #F2E4E4",
"@=	c #F6E9E8",
"#=	c #F5E8E6",
"$=	c #F5E6E5",
"%=	c #E7D0D1",
"&=	c #E7D1D3",
"*=	c #C9ABA8",
"==	c #E5C6C1",
"-=	c #F2D4D1",
";=	c #F3D7D7",
">=	c #F4DADB",
",=	c #F3DADA",
"'=	c #F1D1D0",
")=	c #F2D5D3",
"!=	c #F2D7D5",
"~=	c #F2DBDA",
"{=	c #F3DDDC",
"]=	c #F3E0E0",
"^=	c #F3E3E1",
"/=	c #F4E4E3",
"(=	c #F4E6E5",
"_=	c #F4E7E6",
":=	c #F5E7E6",
"<=	c #E2C9CA",
"[=	c #E9D3D5",
"}=	c #D2B6B4",
"|=	c #F1D3D0",
"1=	c #F1D1CF",
"2=	c #F2D6D4",
"3=	c #F3D8D6",
"4=	c #F3D9D8",
"5=	c #F3DCDA",
"6=	c #F3DEDD",
"7=	c #F4E5E4",
". + @ # $ % & * = - ; > , ' ) ! ~ { ] ^ / ( _ : < [ } | 1 2 3 4 ",
"5 6 7 8 9 0 a b c d > e f g h ~ i j k l m m n o p q r } s t u v ",
"w x y z A B C D E F G H I J K L M / N m m O O P Q R S T U V W X ",
"Y Z `  ...+.@.#.$.%.&.*.=.-.;.>.^ / ,.'.O ).!.~.{.].^./.(._.W :.",
"<.[.}.|.1.2.3.4.5.6.7.8.9.0.>.;.a.>.M / b.c.!.d.e.f.g.S h.i.j.k.",
"l.m.n.o.p.q.r.s.t.u.v.w.x.y.>.z.A.B.>.C.D.,.E.F.d.G.H.I./.J.K.k.",
"L.M.N.O.P.Q.R.S.T.U.V.W.X.Y.Z.`. +.+++@+#+^ k $+~.%+&+^.*+=+-+;+",
">+,+'+)+!+~+{+]+^+/+(+_+:+<+[+}+|+1+2+3+4+5+6+D.l 7+d.8+9+/.0+a+",
"b+c+d+e+f+g+h+i+j+k+l+m+n+o+p+q+r+s+t+u+v+w+x+y+D.z+O A+B+/./.C+",
"D+E+F+G+H+I+J+K+L+M+N+O+P+Q+R+S+T+U+V+W+X+Y+Z+`+ @.@+@@@P #@/.$@",
"%@&@*@=@-@;@>@,@'@)@!@~@{@]@^@/@Q+(@_@:@<@[@}@|@1@2@.@+@3@4@^.*+",
"5@6@7@8@9@0@a@b@c@d@e@f@g@g@h@i@j@k@l@m@n@o@p@F.q@r@s@D.D.t@u@v@",
"w@x@y@z@A@B@C@D@E@F@G@H@I@J@K@L@M@N@O@P@Q@R@S@T@U@V@W@X@Y@+@Z@`@",
" #.#+#@###$#%#&#*#=#-#;#>#,#'#)#!#~#{#]#]@^#/#(#_#:#<#[#}#|#^ 1#",
"2#3#4#5#6#7#8#9#0#a#b#c#d#e#f#g#h#i#j#k#l#m#n#o#p#q#r#s#t#u#v#w#",
"x#y#z#A#B#C#D#E#F#G#H#H#H#I#J#K#L#M#N#O#P#Q#R#S#T#U#V#).W#X#Y#Z#",
"`# $.$+$@$#$$$%$&$*$=$H#H#-$;$>$,$'$)$!$~${$]$^$/$($_$:$<$[$}$|$",
"1$2$3$4$5$6$7$8$9$0$a$b$b$c$d$e$f$g$h$i$j$k$l$m$n$o$p$q$r$s$t$u$",
"v$w$x$y$z$A$B$B$C$D$E$F$G$H$I$J$K$L$M$N$O$P$Q$R$S$T$U$V$W$X$t$Y$",
"Z$`$ %.%+%@%B$B$#%$%%%&%*%=%-%;%>%,%'%)%!%~%{%]%^%/%(%U$_%:%<%[%",
"}%|%1%2%3%4%B$B$5%6%7%8%9%0%a%b%c%d%e%f%g%h%i%j%k%9#l%m%n%o%l p%",
"q%r%s%t%u%v%w%B$x%y%z%A%B%C%D%E%F%G%H%I%J%K%L%M%N%O%P%Q%R%S%T%F.",
"U%V%s%W%X%Y%Z%`% &.&+&@&#&$&%&&&*&=&-&;&>&,&'&)&!&~&{&]&^&/&(&_&",
":&<&[&}&|&|&1&2&3&4&5&6&7&8&9&0&a&b&c&d&e&f&g&h&x%B$i&j&k&l&m&n&",
"o&p&q&r&s&|&|&|&t&u&v&w&x&y&z&A&B&C&D&E&F&G&H&`%B$B$I&J&K&L&M&F.",
"N&O&P&E Q&Q&R&S&s&T&U&V&W&X&Y&Z&`& *.*+*@*#*$*x%B$B$%*&***=*4 4 ",
"-*;*>*,*R&Q&Q&'*S&S&)*!*~*{*]*^*/*(*_*:*<*[*%*B$B$B$B$}*|*1*4 4 ",
"2*3*4*e s&5*6*7*8*S&9*0*a*b*c*d*e*f*g*h*i*j*x%w%B$B$B$k*l*m*%+4 ",
"n*-*o*G p*q*r*s*t*9*0*u*a*v*w*x*y*z*A*B*C*D*E*F*G*H*I*J*K*L*%+%+",
"M*N*O*P*w*Q*R*S*7*u*a*a*v*T*U*x*V*W*X*Y*Z*`* =.=+=@=#=#=$=L*L*%+",
"%=&=*===-=;=>=,=t*a*a*'=b*-=)=!=V*~={=]=^=/=(=_=#=:=#=K*$=$=L*L*",
"<=[=}=t.-=t*)=t*|=1=v*|=b*U*2=3=4=5=6=]=^=l&7=_=_=:=#=:=K*K*L*L*"};
